<?xml version="1.0" encoding="UTF-8"?>
<svg width="512" height="512" viewBox="0 0 512 512" xmlns="http://www.w3.org/2000/svg">
  <defs>
    <linearGradient id="grad1" x1="0%" y1="0%" x2="100%" y2="100%">
      <stop offset="0%" style="stop-color:#7eb5e2;stop-opacity:1" />
      <stop offset="50%" style="stop-color:#7e7ece;stop-opacity:1" />
      <stop offset="100%" style="stop-color:#b07ec9;stop-opacity:1" />
    </linearGradient>
    <linearGradient id="grad2" x1="100%" y1="0%" x2="0%" y2="100%">
      <stop offset="0%" style="stop-color:#00b5e2;stop-opacity:1" />
      <stop offset="50%" style="stop-color:#5b6bc0;stop-opacity:1" />
      <stop offset="100%" style="stop-color:#9575cd;stop-opacity:1" />
    </linearGradient>
  </defs>
  <g transform="translate(0,512) scale(1,-1)">
    <g transform="matrix(1.276,0,0,1.276,0,33.97)">
      <!-- Light blue/purple parts -->
      <path d="M 157.738,239.515 59.961,70.183 37.133,108.882 63.484,154.229 11.152,154.366 0,173.702 l 11.391,19.777 74.488,-0.234 26.769,46.152 z" fill="url(#grad1)"/>
      <path d="M 165.238,104.155 360.77,104.143 338.672,65.026 286.223,65.171 312.27,19.784 301.102,0.456 278.277,0.429 241.238,65.058 187.883,65.167 Z" fill="url(#grad1)"/>
      <path d="m 279.043,178.35 -97.758,169.34 44.926,0.422 26.101,-45.496 26.286,45.254 22.32,-0.008 11.434,-19.754 -37.45,-64.39 26.582,-46.262 z" fill="url(#grad1)"/>
      <!-- Darker blue/purple parts -->
      <path d="m 122.453,169.761 97.758,-169.34 -44.926,-0.422 -26.101,45.496 -26.286,-45.25 -22.32,0.008 -11.433,19.75 37.449,64.394 -26.582,46.258 z" fill="url(#grad2)"/>
      <path d="m 236,244.386 -195.535,0.011 22.101,39.118 52.45,-0.149 -26.047,45.391 11.168,19.328 22.82,0.023 37.043,-64.625 53.352,-0.109 z" fill="url(#grad2)"/>
      <path d="m 243.625,108.636 97.777,169.328 22.825,-38.696 -26.348,-45.351 52.332,-0.137 11.152,-19.336 -11.39,-19.777 -74.489,0.238 -26.769,-46.152 z" fill="url(#grad2)"/>
    </g>
  </g>
</svg>
